<svg xmlns="http://www.w3.org/2000/svg" width="149.217" height="114.336" viewBox="0 0 149.217 114.336">
  <path id="_001-car" data-name="001-car" d="M149.117,121.841v30.638a2.477,2.477,0,0,1-2.485,2.468h-5.9a2.468,2.468,0,1,1,0-4.935h3.417v-28.17a12.336,12.336,0,0,0-5.117-9.979C129.516,105,111.238,94.7,88.547,95.87l1.618,12.372a2.485,2.485,0,0,1-4.929.636L83.591,96.306a72.354,72.354,0,0,0-39.808,18.569h62.792a12.405,12.405,0,0,0,9.669-4.588,2.5,2.5,0,0,1,3.495-.37,2.456,2.456,0,0,1,.373,3.47,17.367,17.367,0,0,1-13.536,6.423H38.08l-27.648,7.626a7.434,7.434,0,0,0-5.46,7.133v14.793H8.7a2.468,2.468,0,1,1,0,4.935H2.485A2.477,2.477,0,0,1,0,151.831V134.57a12.389,12.389,0,0,1,9.1-11.889l27.278-7.524c27.072-28.075,69.1-33.579,105.571-7.29a17.275,17.275,0,0,1,7.167,13.973Zm-97.858,30.05a17.4,17.4,0,1,1-17.4-17.274A17.356,17.356,0,0,1,51.259,151.891Zm-4.971,0A12.427,12.427,0,1,0,33.862,164.23,12.4,12.4,0,0,0,46.288,151.891Zm86.364,0a17.4,17.4,0,1,1-17.4-17.274A17.356,17.356,0,0,1,132.652,151.891Zm-4.971,0a12.427,12.427,0,1,0-12.426,12.339A12.4,12.4,0,0,0,127.681,151.891ZM91.023,150.04h-32a2.468,2.468,0,1,0,0,4.935h32a2.468,2.468,0,1,0,0-4.935Zm40.108-69.48a4.683,4.683,0,1,1-3.3-1.355A4.628,4.628,0,0,1,131.132,80.56Zm8.128-4.58a2.455,2.455,0,0,0,0-3.49,16.227,16.227,0,0,0-22.846,0,2.455,2.455,0,0,0,0,3.49,2.5,2.5,0,0,0,3.514,0,11.234,11.234,0,0,1,15.816,0,2.5,2.5,0,0,0,3.515,0ZM110.7,66.819a24.34,24.34,0,0,1,34.269,0,2.477,2.477,0,0,0,3.515-3.49,29.333,29.333,0,0,0-41.3,0,2.455,2.455,0,0,0,0,3.49A2.5,2.5,0,0,0,110.7,66.819Z" transform="translate(0 -54.83)" fill="#fff" opacity="0.16"/>
</svg>
