<svg xmlns="http://www.w3.org/2000/svg" width="144.135" height="131.889" viewBox="0 0 144.135 131.889">
  <g id="_002-car-repair" data-name="002-car-repair" transform="translate(0 -20.305)">
    <g id="Group_24" data-name="Group 24" transform="translate(0 76.632)">
      <g id="Group_23" data-name="Group 23">
        <path id="Path_12" data-name="Path 12" d="M136.506,236.264l-11.579-5.247-10.192-16.283a16.187,16.187,0,0,0-13.78-7.629H57.624a16.414,16.414,0,0,0-12.936,6.423L31.571,230.746l-22.012,6A12.974,12.974,0,0,0,0,249.23v8.383a12.909,12.909,0,0,0,13.026,12.815h1.809a16.416,16.416,0,0,0,31.752,0h49.3a16.416,16.416,0,0,0,31.752,0h3.468a12.909,12.909,0,0,0,13.026-12.815v-9.559A13.044,13.044,0,0,0,136.506,236.264ZM30.727,276.76A10.373,10.373,0,1,1,41.1,266.387,10.372,10.372,0,0,1,30.727,276.76Zm81.023,0a10.373,10.373,0,1,1,10.373-10.373A10.372,10.372,0,0,1,111.75,276.76ZM138.1,257.613a6.9,6.9,0,0,1-7,6.785h-3.046a16.4,16.4,0,0,0-32.6,0H47.01a16.4,16.4,0,0,0-32.6,0H13.026a6.88,6.88,0,0,1-7-6.785V249.23a6.966,6.966,0,0,1,5.126-6.664l22.977-6.272a3.131,3.131,0,0,0,1.628-1.086l13.72-18.032a10.255,10.255,0,0,1,8.142-4.041h43.331a10.117,10.117,0,0,1,8.654,4.825L120.283,235a2.817,2.817,0,0,0,1.3,1.146L134,241.782a7,7,0,0,1,4.1,6.3Z" transform="translate(0 -207.105)" fill="#525252"/>
      </g>
    </g>
    <g id="Group_26" data-name="Group 26" transform="translate(17.478 20.305)">
      <g id="Group_25" data-name="Group 25" transform="translate(0 0)">
        <path id="Path_13" data-name="Path 13" d="M163.875,38.548a3.008,3.008,0,0,0,3.257-2.744,2.682,2.682,0,0,0-.121-1.086A19.569,19.569,0,0,0,159.5,24.044a21.672,21.672,0,0,0-12.333-3.739c-8.8,0-15.951,4.463-19.148,12.3h-31.9A21.308,21.308,0,0,0,77.876,21.9a20.666,20.666,0,0,0-12.423,3.8,19.582,19.582,0,0,0-7.3,11.639,2.984,2.984,0,0,0,2.262,3.588,3.052,3.052,0,0,0,.9.06l10.494-.814a6.716,6.716,0,0,1,0,5.79l-10.584-.844a3.008,3.008,0,0,0-3.257,2.744,2.681,2.681,0,0,0,.121,1.086,19.468,19.468,0,0,0,7.538,10.674,21.4,21.4,0,0,0,12.393,3.8c8.8,0,15.951-4.614,19.148-12.152h31.752c3.317,5.428,9.86,10.584,18.183,10.463a20.835,20.835,0,0,0,12.423-3.86,20.01,20.01,0,0,0,7.448-11.519,3.045,3.045,0,0,0-2.2-3.679,2.57,2.57,0,0,0-.965-.09l-10.494.874a6.716,6.716,0,0,1,0-5.79ZM149.341,48.5a3.089,3.089,0,0,0,2.593,1.146l7.508-.573c-2.442,4.252-6.815,6.634-12.423,6.634-6.483.09-11.609-4.463-13.6-8.745a2.932,2.932,0,0,0-2.744-1.658H95.064a2.95,2.95,0,0,0-2.895,2.081c-1.87,6.212-7.3,10.041-14.142,10.041a14.37,14.37,0,0,1-12.062-5.79l7.177.573A3.033,3.033,0,0,0,75.8,51.032l.06-.09a12.983,12.983,0,0,0-.09-15.71,3.055,3.055,0,0,0-2.623-1.176l-7.629.6c2.382-4.372,6.694-6.785,12.363-6.785A15.9,15.9,0,0,1,91.6,36.859a3.1,3.1,0,0,0,2.714,1.809H130.1A3.1,3.1,0,0,0,133,36.437c1.87-6.212,7.3-10.132,14.112-10.132,5.126.06,9.438,2.171,12.031,5.82l-7.177-.6a3.033,3.033,0,0,0-2.654,1.176l-.06.09A12.9,12.9,0,0,0,149.341,48.5Z" transform="translate(-57.964 -20.305)" fill="#525252"/>
      </g>
    </g>
  </g>
</svg>
