<svg xmlns="http://www.w3.org/2000/svg" width="145.267" height="122.586" viewBox="0 0 145.267 122.586">
  <g id="_003-parking" data-name="003-parking" transform="translate(0 -39.97)" opacity="0.15">
    <g id="Group_6" data-name="Group 6" transform="translate(112.606 51.771)">
      <g id="Group_5" data-name="Group 5">
        <path id="Path_3" data-name="Path 3" d="M405.706,81.562h-7.091a1.555,1.555,0,0,0-1.729,1.411h0V105.9c0,.952,1.129,1.446,2.293,1.446,1.129,0,2.293-.494,2.293-1.446V97.719h3.951c4.656,0,8.29-2.223,8.29-8.008V89.5C413.714,83.714,410.186,81.562,405.706,81.562Zm3.422,8.5c0,2.752-1.411,4.057-3.7,4.057h-3.951V85.584h3.951c2.293,0,3.7,1.305,3.7,4.057Z" transform="translate(-396.886 -81.562)" fill="#fff"/>
      </g>
    </g>
    <g id="Group_8" data-name="Group 8" transform="translate(32.401 50.35)">
      <g id="Group_7" data-name="Group 7">
        <path id="Path_4" data-name="Path 4" d="M164.948,86.939a35.457,35.457,0,0,0-50.143,0,2.069,2.069,0,0,0,2.926,2.927,31.318,31.318,0,0,1,44.29,0,2.07,2.07,0,0,0,2.927-2.927Z" transform="translate(-114.198 -76.554)" fill="#fff"/>
      </g>
    </g>
    <g id="Group_10" data-name="Group 10" transform="translate(40.938 62.434)">
      <g id="Group_9" data-name="Group 9">
        <path id="Path_5" data-name="Path 5" d="M177.964,125.985a23.409,23.409,0,0,0-33.068,0,2.069,2.069,0,1,0,2.927,2.927,19.266,19.266,0,0,1,27.215,0,2.069,2.069,0,1,0,2.927-2.927Z" transform="translate(-144.289 -119.147)" fill="#fff"/>
      </g>
    </g>
    <g id="Group_12" data-name="Group 12" transform="translate(49.34 74.312)">
      <g id="Group_11" data-name="Group 11" transform="translate(0 0)">
        <path id="Path_6" data-name="Path 6" d="M190.773,164.372a11.513,11.513,0,0,0-16.264,0,2.069,2.069,0,0,0,2.927,2.927,7.37,7.37,0,0,1,10.411,0,2.069,2.069,0,1,0,2.926-2.927Z" transform="translate(-173.903 -161.009)" fill="#fff"/>
      </g>
    </g>
    <g id="Group_14" data-name="Group 14" transform="translate(17.587 102.838)">
      <g id="Group_13" data-name="Group 13">
        <path id="Path_7" data-name="Path 7" d="M146.234,276.693c-.9-.493-1.779-1.032-2.626-1.6l-13.688-9.247a24.943,24.943,0,0,0-14.014-4.29H90.783a24.877,24.877,0,0,0-17.669,7.3,33.538,33.538,0,0,1-8.224,6.016,5.384,5.384,0,0,0,2.482,10.162h8.566a2.069,2.069,0,1,0,0-4.139H67.372a1.245,1.245,0,0,1-.575-2.35,37.671,37.671,0,0,0,9.237-6.757,20.763,20.763,0,0,1,14.748-6.093h5.625v15.2H89.532a2.069,2.069,0,1,0,0,4.139h56.744a3.089,3.089,0,0,0,3.085-3.085A6,6,0,0,0,146.234,276.693Zm-45.687,4.2v-15.2h15.36a20.82,20.82,0,0,1,11.7,3.581l13.688,9.247c.95.642,1.942,1.248,2.948,1.8a1.927,1.927,0,0,1,.643.571Z" transform="translate(-61.987 -261.552)" fill="#fff"/>
      </g>
    </g>
    <g id="Group_16" data-name="Group 16" transform="translate(52.813 129.461)">
      <g id="Group_15" data-name="Group 15">
        <path id="Path_8" data-name="Path 8" d="M194.6,355.388h-6.392a2.069,2.069,0,0,0,0,4.139H194.6a2.069,2.069,0,0,0,0-4.139Z" transform="translate(-186.142 -355.388)" fill="#fff"/>
      </g>
    </g>
    <g id="Group_18" data-name="Group 18" transform="translate(0 39.97)">
      <g id="Group_17" data-name="Group 17" transform="translate(0 0)">
        <path id="Path_9" data-name="Path 9" d="M143.481,127.724l-.654-1.085a17.033,17.033,0,0,0-11.243-7.9l-5.343-1.063V90.6h13.826a5.168,5.168,0,0,0,5.163-5.163v-40.3a5.168,5.168,0,0,0-5.163-5.163h-40.3A5.168,5.168,0,0,0,94.6,45.133V60.421a2.069,2.069,0,1,0,4.139,0V45.133a1.025,1.025,0,0,1,1.024-1.024h40.3a1.025,1.025,0,0,1,1.024,1.024v40.3a1.025,1.025,0,0,1-1.024,1.024h-40.3a1.025,1.025,0,0,1-1.024-1.024V73.875a2.069,2.069,0,0,0-4.139,0V85.436A5.168,5.168,0,0,0,99.765,90.6h15.679v24.933l-2.746-.546c-3.791-.754-7.486-3.042-9.936-4.7l-13.688-9.247a31.269,31.269,0,0,0-17.566-5.377H46.383a31.181,31.181,0,0,0-22.148,9.149,27.176,27.176,0,0,1-13.642,7.364l-2.971.622A9.63,9.63,0,0,0,0,122.186v20.042a6.061,6.061,0,0,0,3.6,5.534l8.243,3.663a13.721,13.721,0,0,0,26.684,1.127h68.728a13.72,13.72,0,0,0,26.416,0h3.926a7.682,7.682,0,0,0,7.674-7.674V134.144A12.447,12.447,0,0,0,143.481,127.724ZM119.583,90.6H122.1v26.257l-2.521-.5ZM32.1,155.608a9.59,9.59,0,0,1-15.5-10.763l.039-.085c.049-.1.1-.209.154-.312.025-.049.05-.1.076-.146.048-.09.1-.179.149-.267q.053-.091.108-.182c.047-.078.1-.156.145-.233s.092-.138.139-.207.093-.136.141-.2.113-.151.171-.226c.045-.058.089-.117.136-.175.068-.084.139-.167.21-.249.041-.047.079-.095.121-.141q.158-.176.326-.345l.028-.029c.021-.021.044-.041.065-.062.095-.093.19-.185.287-.273.025-.023.052-.044.077-.067.1-.086.195-.171.295-.253l.029-.022a9.608,9.608,0,0,1,12.07.011l.012.01c.107.087.212.178.316.271l.056.049q.18.163.354.337c.125.125.245.253.362.384.051.057.1.116.15.174s.122.142.18.214.129.164.191.247c.035.046.07.093.1.14q.114.157.221.317l.036.055A9.606,9.606,0,0,1,32.1,155.608Zm95.144,0a9.59,9.59,0,0,1-14.806-12.032l.035-.053q.107-.161.221-.318c.034-.047.068-.092.1-.138.063-.083.126-.167.192-.249s.118-.142.179-.213.1-.118.151-.176c.117-.13.237-.258.362-.383a9.59,9.59,0,0,1,13.562,0c.125.125.245.253.362.384.052.057.1.116.15.175s.121.142.18.214.129.165.192.248c.035.046.07.092.1.139.076.1.15.21.221.317l.036.054A9.606,9.606,0,0,1,127.24,155.608Zm13.888-10.73h0a3.539,3.539,0,0,1-3.535,3.535h-3.407a13.556,13.556,0,0,0-3.047-8.213l-.038-.048c-.118-.144-.24-.285-.365-.425-.032-.036-.062-.073-.094-.108-.132-.145-.268-.287-.406-.427-.024-.024-.045-.049-.069-.072a13.645,13.645,0,0,0-6.354-3.611,13.935,13.935,0,0,0-6.054-.147,13.634,13.634,0,0,0-7.009,3.757c-.023.023-.045.048-.068.071-.139.141-.276.283-.408.429-.031.034-.06.07-.091.1-.125.141-.249.284-.368.429l-.035.044a13.559,13.559,0,0,0-3.05,8.216H39.042a13.559,13.559,0,0,0-3.057-8.225l-.026-.033c-.125-.153-.255-.3-.386-.45-.024-.027-.047-.055-.072-.083q-.232-.256-.478-.5a13.744,13.744,0,0,0-19.415,0c-.153.153-.3.31-.445.469-.043.047-.084.1-.126.142q-.153.173-.3.35c-.043.052-.087.105-.129.159q-.152.189-.3.383c-.03.04-.061.08-.09.12q-.389.532-.722,1.1l-.018.032q-.163.277-.312.561l-.009.016a13.642,13.642,0,0,0-1.429,4.4l-6.45-2.867a1.919,1.919,0,0,1-1.139-1.752V122.186a5.474,5.474,0,0,1,4.333-5.335l2.971-.622a31.307,31.307,0,0,0,15.714-8.483A27.067,27.067,0,0,1,46.384,99.8H71.508a27.146,27.146,0,0,1,15.25,4.668l13.688,9.247c2.747,1.856,6.922,4.427,11.446,5.327l18.887,3.756a12.886,12.886,0,0,1,8.5,5.975l.654,1.085a8.3,8.3,0,0,1,1.191,4.284Z" transform="translate(0 -39.97)" fill="#fff"/>
      </g>
    </g>
    <g id="Group_20" data-name="Group 20" transform="translate(19.032 142.544)">
      <g id="Group_19" data-name="Group 19" transform="translate(0 0)">
        <path id="Path_10" data-name="Path 10" d="M77.806,403.34a6.283,6.283,0,1,0,0,8.885A6.242,6.242,0,0,0,77.806,403.34ZM74.879,409.3a2.144,2.144,0,1,1,0-3.032A2.13,2.13,0,0,1,74.879,409.3Z" transform="translate(-67.08 -401.5)" fill="#fff"/>
      </g>
    </g>
    <g id="Group_22" data-name="Group 22" transform="translate(114.179 142.544)">
      <g id="Group_21" data-name="Group 21" transform="translate(0 0)">
        <path id="Path_11" data-name="Path 11" d="M413.153,403.341a6.283,6.283,0,1,0,1.84,4.443A6.241,6.241,0,0,0,413.153,403.341Zm-2.927,5.958a2.144,2.144,0,1,1,.628-1.516A2.13,2.13,0,0,1,410.226,409.3Z" transform="translate(-402.43 -401.5)" fill="#fff"/>
      </g>
    </g>
  </g>
</svg>
